<svg width="347" height="98" viewBox="0 0 347 98" fill="none" xmlns="http://www.w3.org/2000/svg">
<path d="M24.5 62.5L18.5 56H9.5C6.667 42 4.5 14.6 18.5 17C32.5 19.4 36.667 59.6667 37 79.5V90.5L40.5 96L50 97.5L64 96L61.5 90.5C61.667 76 66.1 40.3 82.5 13.5L76 7.50001C70.667 17 58.6 44.7 53 79.5C49.333 56.3333 39 9.50001 27 7.50001C17.5 4.16667 -1.1 8.10001 0.499998 50.5C1.5 58.1667 7.6 71.5 24 63.5L25 63L24.5 62.5Z" fill="black"/>
<path d="M80 43C80.508 40.7127 86 43 86 43L92.5 45L94.5 47.5L92.5 51L91.5 78C93.5 83.3333 99.3 89.9 106.5 73.5L108.5 40C110.833 39.5 116 39.4 118 43V69.5C120.167 63.6667 126.2 51.4 133 49C134.833 49.8333 138.3 53.2 137.5 60L138 81.5C140.333 85.1667 146 87.8 150 69L152 69.5C153 75.5 150.884 81.6525 147.5 86C143.436 91.2207 135.18 92.7179 129.5 85L129 63.5C127 66.5 122.3 76.4 119.5 92C115.333 93.1667 107.1 93.3 107.5 84.5C102.167 89.6667 89.4 96 81 80V46C81 46 79.732 44.2055 80 43Z" fill="black"/>
<path d="M79 23.5C79.901 20.4831 86 19.5 86 19.5L92.5 21.5C92.5 21.5 97.876 25.3704 97 28.5C96.366 30.7643 94.729 31.7518 92.5 32.5C89.668 33.4505 85 31 85 31C85 31 77.927 27.0941 79 23.5Z" fill="black"/>
<path d="M150.5 82H154L160 87C161.167 87.8333 163.8 89.4 165 89C166.2 88.6 169.167 87.8333 170.5 87.5L171 84L162 75.5C154 70.6667 141.7 57.9 156.5 45.5C163.5 42.1667 178.3 37.4 181.5 45C182.333 47 182.5 51.8 176.5 55L169.5 51C164.833 52 157.3 56.3 164.5 65.5L179.5 78C182.333 80.8333 185.5 87.6 175.5 92C168.333 93.3333 153.1 94.1 149.5 86.5C149.167 85.3333 148.9 82.8 150.5 82Z" fill="black"/>
<path d="M266.5 89.5L264 92C264 93.8524 268.5 93.5 268.5 93.5H278C279.167 83.8333 282.7 62.6 287.5 55C286.833 68.3333 288.338 93.4474 300 93.5C305.736 93.5258 309.791 90.4434 312.5 86.2401C313.353 84.9171 314.072 83.4831 314.669 82C316.458 77.5503 317.142 72.659 317 69C317 69 314.909 68.1911 313.5 68C304.75 66.8129 309.3 88.1 300.5 86.5C298 83.1667 294.5 70.8 300.5 48C299.667 44.8333 296.1 39 288.5 41C286.833 42.1667 276 72.5 276 72.5C276 72.5 276.9 13.8 280.5 1L265.5 0L266.336 74.8369L266.466 86.5L266.5 89.5Z" fill="black"/>
<path d="M319 82H314.669C314.072 83.4831 313.353 84.9171 312.5 86.2401L320 91.5C324 92.6667 333.8 94.3 341 91.5C348.2 88.7 347 83 345.5 80.5L326.5 63.5C325.333 61.3333 324.4 56.2 330 53C335.6 49.8 338.333 52.6667 339 54.5C347 53.7 347.333 46.5 346.5 43C341.167 40.8333 328.2 38.6 319 47C309.8 55.4 315.833 66.1667 320 70.5C335.2 78.5 335.667 84.5 334 86.5C327.6 91.3 321.333 85.5 319 82Z" fill="black"/>
<path fill-rule="evenodd" clip-rule="evenodd" d="M175.5 34C177.167 35.1667 182.1 37.8 188.5 39V78C190.167 85.6667 196.1 100 206.5 96C208.667 94.8333 213.8 90.8 217 84C217.667 88 220.8 96 228 96C228 96 231.585 97.5144 234 97.5C241.655 97.4543 243.6 91.2 246 82C246.667 86.3333 250.2 94.4 259 92C260.811 91.6667 264.84 90.1 266.466 86.5L266.336 74.8369C266.124 79.4274 264.391 85.8261 259 86.5C256.333 86.3333 252.3 80.8 257.5 60C257.5 60 254.495 58.1493 253 56.5C248.342 51.3633 250 39 250 39L241.5 35.5C237.167 32.6667 227.2 29.4 222 39C219.833 42.8333 215.5 54.9 215.5 72.5C214.333 77.6667 210.9 87.9 206.5 87.5C203 90.5 197.2 85 202 39C205.333 38 213.6 36.3 220 37.5C221.333 35.8333 222.3 32.5 215.5 32.5H202L203.5 13C202 11.3333 197.5 8.20001 191.5 9.00001L190 31H175.5V34ZM242 59.5L244 55.5C245.531 49.1 241.805 46 240 44.5C231.5 42.5 229.833 48.6666 228.5 52C225.5 65.6666 221.9 92.5 231.5 90.5C241.1 88.5 242.5 69 242 59.5Z" fill="black"/>
</svg>
