<svg width="96" height="96" viewBox="0 0 96 96" fill="none" xmlns="http://www.w3.org/2000/svg">
<path d="M67 11H85V31H67V11Z" fill="white"/>
<path d="M0 18C0 8.0589 8.05888 0 18 0H78C87.9411 0 96 8.0589 96 18V78C96 87.9411 87.9411 96 78 96H18C8.05888 96 0 87.9411 0 78V18Z" fill="black"/>
<path d="M7 18C7 11.9249 11.9249 7 18 7H79C85.0751 7 90 11.9249 90 18V78C90 84.0751 85.0751 89 79 89H18C11.9249 89 7 84.0751 7 78V18Z" fill="white"/>
<path d="M72 48C72 61.2548 61.2548 72 48 72C34.7452 72 24 61.2548 24 48C24 34.7452 34.7452 24 48 24C61.2548 24 72 34.7452 72 48Z" fill="black"/>
<path d="M63 48C63 56.2843 56.2843 63 48 63C39.7157 63 33 56.2843 33 48C33 39.7157 39.7157 33 48 33C56.2843 33 63 39.7157 63 48Z" fill="white"/>
<path d="M75.0877 34L65 16H69.8246L75.307 27.1389L80.4386 16H85L75.307 34H75.0877Z" fill="black"/>
</svg>
