<svg width="458" height="103" viewBox="0 0 458 103" fill="none" xmlns="http://www.w3.org/2000/svg">
<path d="M135.5 62.5L129.5 56H120.5C117.667 42 115.5 14.6 129.5 17C143.5 19.4 147.667 59.6667 148 79.5V90.5L151.5 96L161 97.5L175 96L172.5 90.5C172.667 76 177.1 40.3 193.5 13.5L187 7.50001C181.667 17 169.6 44.7 164 79.5C160.333 56.3333 150 9.50001 138 7.50001C128.5 4.16667 109.9 8.10001 111.5 50.5C112.5 58.1667 118.6 71.5 135 63.5L136 63L135.5 62.5Z" fill="black"/>
<path d="M191 43C191.508 40.7127 197 43 197 43L203.5 45L205.5 47.5L203.5 51L202.5 78C204.5 83.3333 210.3 89.9 217.5 73.5L219.5 40C221.833 39.5 227 39.4 229 43V69.5C231.167 63.6667 237.2 51.4 244 49C245.833 49.8333 249.3 53.2 248.5 60L249 81.5C251.333 85.1667 257 87.8 261 69L263 69.5C264 75.5 261.884 81.6525 258.5 86C254.436 91.2207 246.18 92.7179 240.5 85L240 63.5C238 66.5 233.3 76.4 230.5 92C226.333 93.1667 218.1 93.3 218.5 84.5C213.167 89.6667 200.4 96 192 80V46C192 46 190.732 44.2055 191 43Z" fill="black"/>
<path d="M190 23.5C190.901 20.4831 197 19.5 197 19.5L203.5 21.5C203.5 21.5 208.876 25.3704 208 28.5C207.366 30.7643 205.729 31.7518 203.5 32.5C200.668 33.4505 196 31 196 31C196 31 188.927 27.0941 190 23.5Z" fill="black"/>
<path d="M261.5 82H265L271 87C272.167 87.8333 274.8 89.4 276 89C277.2 88.6 280.167 87.8333 281.5 87.5L282 84L273 75.5C265 70.6667 252.7 57.9 267.5 45.5C274.5 42.1667 289.3 37.4 292.5 45C293.333 47 293.5 51.8 287.5 55L280.5 51C275.833 52 268.3 56.3 275.5 65.5L290.5 78C293.333 80.8333 296.5 87.6 286.5 92C279.333 93.3333 264.1 94.1 260.5 86.5C260.167 85.3333 259.9 82.8 261.5 82Z" fill="black"/>
<path d="M377.5 89.5L375 92C375 93.8524 379.5 93.5 379.5 93.5H389C390.167 83.8333 393.7 62.6 398.5 55C397.833 68.3333 399.338 93.4474 411 93.5C416.736 93.5258 420.791 90.4434 423.5 86.2401C424.353 84.9171 425.072 83.4831 425.669 82C427.458 77.5503 428.142 72.659 428 69C428 69 425.909 68.1911 424.5 68C415.75 66.8129 420.3 88.1 411.5 86.5C409 83.1667 405.5 70.8 411.5 48C410.667 44.8333 407.1 39 399.5 41C397.833 42.1667 387 72.5 387 72.5C387 72.5 387.9 13.8 391.5 1L376.5 0L377.336 74.8369L377.466 86.5L377.5 89.5Z" fill="black"/>
<path d="M430 82H425.669C425.072 83.4831 424.353 84.9171 423.5 86.2401L431 91.5C435 92.6667 444.8 94.3 452 91.5C459.2 88.7 458 83 456.5 80.5L437.5 63.5C436.333 61.3333 435.4 56.2 441 53C446.6 49.8 449.333 52.6667 450 54.5C458 53.7 458.333 46.5 457.5 43C452.167 40.8333 439.2 38.6 430 47C420.8 55.4 426.833 66.1667 431 70.5C446.2 78.5 446.667 84.5 445 86.5C438.6 91.3 432.333 85.5 430 82Z" fill="black"/>
<path fill-rule="evenodd" clip-rule="evenodd" d="M286.5 34C288.167 35.1667 293.1 37.8 299.5 39V78C301.167 85.6667 307.1 100 317.5 96C319.667 94.8333 324.8 90.8 328 84C328.667 88 331.8 96 339 96C339 96 342.585 97.5144 345 97.5C352.655 97.4543 354.6 91.2 357 82C357.667 86.3333 361.2 94.4 370 92C371.811 91.6667 375.84 90.1 377.466 86.5L377.336 74.8369C377.124 79.4274 375.391 85.8261 370 86.5C367.333 86.3333 363.3 80.8 368.5 60C368.5 60 365.495 58.1493 364 56.5C359.342 51.3633 361 39 361 39L352.5 35.5C348.167 32.6667 338.2 29.4 333 39C330.833 42.8333 326.5 54.9 326.5 72.5C325.333 77.6667 321.9 87.9 317.5 87.5C314 90.5 308.2 85 313 39C316.333 38 324.6 36.3 331 37.5C332.333 35.8333 333.3 32.5 326.5 32.5H313L314.5 13C313 11.3333 308.5 8.2 302.5 9L301 31H286.5V34ZM353 59.5L355 55.5C356.531 49.1 352.805 46 351 44.5C342.5 42.5 340.833 48.6666 339.5 52C336.5 65.6666 332.9 92.5 342.5 90.5C352.1 88.5 353.5 69 353 59.5Z" fill="black"/>
<path d="M67 18H85V38H67V18Z" fill="white"/>
<path d="M0 25C0 15.0589 8.05888 7 18 7H78C87.9411 7 96 15.0589 96 25V85C96 94.9411 87.9411 103 78 103H18C8.05888 103 0 94.9411 0 85V25Z" fill="black"/>
<path d="M7 25C7 18.9249 11.9249 14 18 14H79C85.0751 14 90 18.9249 90 25V85C90 91.0751 85.0751 96 79 96H18C11.9249 96 7 91.0751 7 85V25Z" fill="white"/>
<path d="M72 55C72 68.2548 61.2548 79 48 79C34.7452 79 24 68.2548 24 55C24 41.7452 34.7452 31 48 31C61.2548 31 72 41.7452 72 55Z" fill="black"/>
<path d="M63 55C63 63.2843 56.2843 70 48 70C39.7157 70 33 63.2843 33 55C33 46.7157 39.7157 40 48 40C56.2843 40 63 46.7157 63 55Z" fill="white"/>
<path d="M75.0877 41L65 23H69.8246L75.307 34.1389L80.4386 23H85L75.307 41H75.0877Z" fill="black"/>
</svg>
